{"title":"Salt.DIRECTORS.CUT.2010.BluRay.720p.x264.HEFF","magnet":"magnet:?xt=urn:btih:21156ae6416aa0e492a7a06d7cb557a33f36679e&dn=Salt.DIRECTORS.CUT.2010.BluRay.720p.x264.HEFF&tr=udp%3A%2F%2Ftracker.leechers-paradise.org%3A6969&tr=udp%3A%2F%2Fzer0day.ch%3A1337&tr=udp%3A%2F%2Fopen.demonii.com%3A1337&tr=udp%3A%2F%2Ftracker.coppersurfer.tk%3A6969&tr=udp%3A%2F%2Fexodus.desync.com%3A6969","uploader":"Browse pheonix83","categoryP":"video","categoryS":"hd___movies","size":"2174760871","seeders":"1","leechers":"11","description":"Donate Us: bitcoin:17HBPWiAcvh9GFcZPg1ebvBXbnJDE3oxut\r\n\r\nGeneral\r\nComplete name                            : Salt.DIRECTORS.CUT.2010.BluRay.720p.x264.HEFF.mp4\r\nFormat                                   : MPEG-4\r\nFormat profile                           : Base Media\r\nCodec ID                                 : isom (isom/iso2/avc1/mp41)\r\nFile size                                : 2.03 GiB\r\nDuration                                 : 1 h 44 min\r\nOverall bit rate mode                    : Variable\r\nOverall bit rate                         : 2 786 kb/s\r\n\r\nVideo\r\nID                                       : 1\r\nFormat                                   : AVC\r\nFormat/Info                              : Advanced Video Codec\r\nFormat profile                           : <a class=\"__cf_email__\" href=\"/cdn-cgi/l/email-protection\" data-cfemail=\"c78aa6aea9878bf3e9f6\">[email&#xA0;protected]</a><script data-cfhash=\"f9e31\" type=\"text/javascript\">/* <![CDATA[ */!function(t,e,r,n,c,a,p){try{t=document.currentScript||function(){for(t=document.getElementsByTagName('script'),e=t.length;e--;)if(t[e].getAttribute('data-cfhash'))return t[e]}();if(t&&(c=t.previousSibling)){p=t.parentNode;if(a=c.getAttribute('data-cfemail')){for(e='',r='0x'+a.substr(0,2)|0,n=2;a.length-n;n+=2)e+='%'+('0'+('0x'+a.substr(n,2)^r).toString(16)).slice(-2);p.replaceChild(document.createTextNode(decodeURIComponent(e)),c)}p.removeChild(t)}}catch(u){}}()/* ]]> */</script>\r\nFormat settings, CABAC                   : Yes\r\nFormat settings, ReFrames                : 4 frames\r\nCodec ID                                 : avc1\r\nCodec ID/Info                            : Advanced Video Coding\r\nDuration                                 : 1 h 44 min\r\nBit rate                                 : 2 700 kb/s\r\nWidth                                    : 1 280 pixels\r\nHeight                                   : 536 pixels\r\nDisplay aspect ratio                     : 2.40:1\r\nFrame rate mode                          : Constant\r\nFrame rate                               : 23.976 (23976/1000) FPS\r\nChroma subsampling                       : 4:2:0\r\nBit depth                                : 8 bits\r\nScan type                                : Progressive\r\nBits/(Pixel*Frame)                       : 0.164\r\nStream size                              : 1.93 GiB (95%)\r\nWriting library                          : x264 core 148\r\n\r\nAudio\r\nID                                       : 2\r\nFormat                                   : AAC\r\nFormat/Info                              : Advanced Audio Codec\r\nFormat profile                           : LC\r\nCodec ID                                 : 40\r\nDuration                                 : 1 h 44 min\r\nBit rate mode                            : Constant\r\nBit rate                                 : 129 kb/s\r\nChannel(s)                               : 2 channels\r\nChannel positions                        : Front: L R\r\nSampling rate                            : 48.0 kHz\r\nFrame rate                               : 46.875 FPS (1024 spf)\r\nCompression mode                         : Lossy\r\nStream size                              : 95.9 MiB (5%)","last_updated":"2017-04-18T10:39:09.762Z","parsed":{"xt":"urn:btih:21156ae6416aa0e492a7a06d7cb557a33f36679e","dn":"Salt.DIRECTORS.CUT.2010.BluRay.720p.x264.HEFF","tr":["udp://exodus.desync.com:6969","udp://open.demonii.com:1337","udp://tracker.coppersurfer.tk:6969","udp://tracker.leechers-paradise.org:6969","udp://zer0day.ch:1337"],"infoHash":"21156ae6416aa0e492a7a06d7cb557a33f36679e","infoHashBuffer":{"type":"Buffer","data":[33,21,106,230,65,106,160,228,146,167,160,109,124,181,87,163,63,54,103,158]},"name":"Salt.DIRECTORS.CUT.2010.BluRay.720p.x264.HEFF","announce":["udp://exodus.desync.com:6969","udp://open.demonii.com:1337","udp://tracker.coppersurfer.tk:6969","udp://tracker.leechers-paradise.org:6969","udp://zer0day.ch:1337"],"urlList":[]}}